@startuml
/' BRIDGE '/
!include ../format.puml

abstract Abstraction {
    + operation()
}

abstract Implementor {
    + operationImpl()
}

class ConcreteImplementorA {
    + operationImpl()
}

class ConcreteImplementorB {
    + operationImpl()
}

class RefinedAbstraction{
  
  }

Abstraction <|-- RefinedAbstraction
Abstraction *- Implementor
Implementor <|-- ConcreteImplementorA
Implementor <|-- ConcreteImplementorB
@enduml