/' FLYWEIGHT '/

@startuml
Title Patrón Proxy
!include ../format.puml

interface Subject{
    + void doAction()
}

class RealSubject implements Subject{
    + void doAction()
}

class Proxy implements Subject{
    + void doAction()
}

Proxy --> RealSubject: delegate

class Client

Client --> Subject

@enduml