/' Patron ABSTRACT FACTORY '/

@startuml Abstract Factory
!include ../format.puml
skinparam Linetype ortho

hide empty members

class Client

together {
  abstract class ThemeFactory {
    +createButton()
    +createTextBox()
  }

  class LightThemeFactory {
    +createButton()
    +createTextBox()
  }

  class DarkThemeFactory {
    +createButton()
    +createTextBox()
  }
}

together {
  abstract class Button
  class LightButton
  class DarkButton
}


together {
  abstract class TextBox
  class LightTextBox
  class DarkTextBox
}

Client --> ThemeFactory
Client --> Button
Client --> TextBox

LightThemeFactory -up-|> ThemeFactory
DarkThemeFactory -up-|> ThemeFactory

LightTextBox -up-|> TextBox
LightButton -up-|> Button

DarkButton -up-|> Button
DarkTextBox -up-|> TextBox

LightThemeFactory ...> LightTextBox
LightThemeFactory ...> LightButton

DarkThemeFactory ...> DarkButton
DarkThemeFactory ...> DarkTextBox

@enduml