/' Patron BUILDER '/

@startuml
!include ../format.puml

class Director {
    + construct()
}
note bottom: this.builder.buildPart();

interface Builder {
    buildPart()
}

class ConcreteBuilder {
    + buildPart()
    + getResult()
}

class Product {

}

Director *- Builder
Builder <|-- ConcreteBuilder
Product <... ConcreteBuilder
@enduml