/' Patron FACTORY METHOD '/

@startuml
!include ../format.puml

interface Imagen{
  - string data
  + string getData()
}

class ImagenGif{
  + constructor(string file)
  + string getData()
}
class ImagenJpg{
  + constructor(string file)
  + string getData()
}

class ImageFactory{
  +  Imagen crearImagen(string file)
}

Imagen <|-- ImagenGif
Imagen <|-- ImagenJpg
ImagenGif <. ImageFactory
ImagenJpg <. ImageFactory


@enduml